<svg xmlns="http://www.w3.org/2000/svg" viewBox="0 0 48 48">
  <rect width="48" height="48" rx="8" fill="#B8975A"/>
  <!-- "a" path extracted from the official atom logo SVG, scaled to fill the icon -->
  <path
    transform="matrix(2.07 0 0 2 8 0.3)"
    d="M12.4651 19.6844C10.7251 19.6844 9.82511 18.4544 9.58511 16.5644L9.49511 15.9044C9.13511 17.7944 7.33511 19.7444 4.57513 19.7444 2.02513 19.7444 0.255127 18.0944 0.255127 15.8744 0.255127 13.8644 1.69513 12.4244 4.36513 12.1844L8.92511 11.8244 8.71511 10.2944C8.35511 7.56445 7.12511 5.76444 4.84513 5.76444 3.07513 5.76444 1.75513 6.87444 1.09513 8.46445L0.705128 8.37444C1.27513 6.24444 3.43513 3.93444 6.49511 3.93444 9.52511 3.93444 11.4451 5.91444 11.8951 9.48445L12.7651 16.1144C12.9451 17.4044 13.4551 17.7944 13.9651 17.7944 14.3851 17.7944 14.6851 17.4344 14.7751 16.9244L15.1351 16.9544C15.0751 18.2444 14.1451 19.6844 12.4651 19.6844ZM3.28513 15.2144C3.28513 16.6544 4.33513 17.9744 6.16511 17.9744 8.08511 17.9744 9.25511 16.5944 9.40511 15.2144L8.98511 12.2744 6.04511 12.5144C4.21513 12.6944 3.28513 13.7744 3.28513 15.2144Z"
    fill="#1A1A1A"
  />
</svg>
